<?xml version="1.0" standalone="no"?><!DOCTYPE svg PUBLIC "-//W3C//DTD SVG 1.1//EN" "http://www.w3.org/Graphics/SVG/1.1/DTD/svg11.dtd"><svg class="icon" width="200px" height="200.00px" viewBox="0 0 1024 1024" version="1.1" xmlns="http://www.w3.org/2000/svg"><path d="M662.9 427.6c35.4 0 64.2-28.7 64.2-64.2s-28.7-64.2-64.2-64.2-64.2 28.7-64.2 64.2 28.8 64.2 64.2 64.2z m-1.7 63.5c-70.9 0-128.3-57.5-128.3-128.3s57.5-128.3 128.3-128.3S789.5 292 789.5 362.8s-57.4 128.3-128.3 128.3z m-533 72l332.7 332.7 434.9-434.9V128.2H563.1L128.2 563.1zM536.5 64h359.3c35.4 0 64.2 28.7 64.2 64.2v359.3L506.3 941.2c-25.1 25.1-65.7 25.1-90.7 0L82.8 608.5c-25.1-25.1-25.1-65.7 0-90.7L536.5 64z" fill="#00bcd4" /></svg>