<?xml version="1.0" standalone="no"?><!DOCTYPE svg PUBLIC "-//W3C//DTD SVG 1.1//EN" "http://www.w3.org/Graphics/SVG/1.1/DTD/svg11.dtd"><svg class="icon" width="200px" height="200.00px" viewBox="0 0 1024 1024" version="1.1" xmlns="http://www.w3.org/2000/svg"><path d="M1024 512q0 99.428571-68.571429 183.714286t-186.285714 133.142857-257.142857 48.857143q-40 0-82.857143-4.571429-113.142857 100-262.857143 138.285714-28 8-65.142857 12.571429-9.714286 1.142857-17.428571-5.142857t-10-16.571429v-0.571428q-1.714286-2.285714-0.285715-6.857143t1.142858-5.714286 2.571428-5.428571l3.428572-5.142857 4-4.857143 4.571428-5.142857q4-4.571429 17.714286-19.714286t19.714286-21.714286 17.714285-22.571428 18.571429-29.142858 15.428571-33.714285 14.857143-43.428572q-89.714286-50.857143-141.428571-125.714285T0 512q0-74.285714 40.571429-142T149.714286 253.142857t163.428571-78T512 146.285714q139.428571 0 257.142857 48.857143t186.285714 133.142857T1024 512z" fill="#00bcd4" /></svg>