<?xml version="1.0" standalone="no"?><!DOCTYPE svg PUBLIC "-//W3C//DTD SVG 1.1//EN" "http://www.w3.org/Graphics/SVG/1.1/DTD/svg11.dtd"><svg class="icon" width="200px" height="188.58px" viewBox="0 0 1086 1024" version="1.1" xmlns="http://www.w3.org/2000/svg"><path d="M364.8 1017.6c-38.4 0-76.8-12.8-102.4-44.8l-217.6-198.4c-25.6-25.6-44.8-64-44.8-102.4 0-38.4 12.8-76.8 44.8-102.4 25.6-25.6 64-44.8 102.4-44.8 38.4 0 76.8 12.8 102.4 38.4l121.6 102.4 467.2-620.8c25.6-25.6 64-44.8 102.4-44.8s76.8 12.8 102.4 44.8c57.6 57.6 57.6 147.2 0 204.8l-563.2 723.2c-38.4 32-76.8 44.8-115.2 44.8z m-224-428.8c-25.6 0-44.8 6.4-57.6 25.6-19.2 19.2-25.6 38.4-25.6 57.6 0 25.6 6.4 44.8 25.6 57.6l217.6 198.4c19.2 19.2 38.4 25.6 64 25.6h12.8c19.2 0 44.8-12.8 57.6-25.6l563.2-723.2c32-32 32-89.6 0-121.6-19.2-19.2-38.4-25.6-57.6-25.6-19.2 0-44.8 6.4-57.6 25.6l-486.4 646.4c-6.4 6.4-12.8 12.8-19.2 12.8-6.4 0-19.2 0-19.2-6.4l-140.8-128c-32-12.8-51.2-19.2-76.8-19.2z" fill="#00bcd4" /></svg>