<?xml version="1.0" standalone="no"?><!DOCTYPE svg PUBLIC "-//W3C//DTD SVG 1.1//EN" "http://www.w3.org/Graphics/SVG/1.1/DTD/svg11.dtd"><svg class="icon" width="200px" height="200.00px" viewBox="0 0 1024 1024" version="1.1" xmlns="http://www.w3.org/2000/svg"><path d="M1024 320H0v-27.904c0-57.088 5.952-77.76 17.088-98.56 11.136-20.928 27.52-37.312 48.384-48.448 20.864-11.136 41.6-17.088 98.56-17.088H192V0h128v128h384V0h128v128h27.904c57.088 0 77.76 5.952 98.56 17.088 20.928 11.136 37.312 27.52 48.448 48.384 11.136 20.864 17.088 41.6 17.088 98.56V320z m0 64v475.904c0 57.088-5.952 77.76-17.088 98.56-11.136 20.928-27.52 37.312-48.384 48.448-20.864 11.136-41.6 17.088-98.56 17.088H164.032c-57.088 0-77.76-5.952-98.56-17.088a116.288 116.288 0 0 1-48.448-48.384C5.952 937.6 0 916.928 0 859.968V384h1024z m-320 128l-192 192-128-128-64 64 192 192 256-256-64-64z" fill="#00bcd4" /></svg>