<?xml version="1.0" standalone="no"?><!DOCTYPE svg PUBLIC "-//W3C//DTD SVG 1.1//EN" "http://www.w3.org/Graphics/SVG/1.1/DTD/svg11.dtd"><svg class="icon" width="200px" height="200.00px" viewBox="0 0 1024 1024" version="1.1" xmlns="http://www.w3.org/2000/svg"><path d="M674.016 636.663L548.935 511.582l125.077-125.076c10.31-10.312 10.31-27.031 0-37.34-10.311-10.31-27.03-10.31-37.339 0L511.596 474.242 386.511 349.156c-10.31-10.31-27.028-10.31-37.335 0-10.31 10.31-10.31 27.028 0 37.337l125.081 125.081-125.077 125.08c-10.309 10.308-10.305 27.029 0.006 37.338 10.308 10.306 27.03 10.31 37.336 0.005l125.077-125.078 125.08 125.08c10.313 10.312 27.03 10.312 37.339 0 10.31-10.31 10.31-27.026-0.001-37.336h-0.001zM511.596 92.787c-230.995 0-418.787 187.918-418.787 418.794 0 230.871 187.793 418.787 418.787 418.787 230.872 0 418.789-187.918 418.789-418.787 0-230.875-187.857-418.794-418.789-418.794z m0 781.704c-200.36 0-363.389-162.848-363.389-362.91-0.005-200.122 162.964-362.974 363.39-362.974 200.303 0 363.33 162.85 363.33 362.975 0 200.113-163.031 362.911-363.33 362.911v-0.002z" fill="#00bcd4" /></svg>