<?xml version="1.0" standalone="no"?><!DOCTYPE svg PUBLIC "-//W3C//DTD SVG 1.1//EN" "http://www.w3.org/Graphics/SVG/1.1/DTD/svg11.dtd"><svg class="icon" width="200px" height="200.00px" viewBox="0 0 1024 1024" version="1.1" xmlns="http://www.w3.org/2000/svg"><path d="M492.861104 72.754001l-381.809869 150.733003 0 412.55101L571.706847 862.466l337.813842-226.427986L909.520689 224.685295l0-1.197268L492.861104 72.754001zM153.520489 620.219747c0 0 3.069919-331.534835 3.069919-339.208609s13.81361-12.278651 13.81361-12.278651L552.590464 432.963922l0.5137 382.185422L153.520489 620.219747zM576.660672 397.164578l-372.483456-144.626935 145.30948-57.305147L702.186574 330.99146 576.660672 397.164578zM794.077424 398.306588l-61.540611 39.769772c0 0-15.733333 10.359952-18.293645-8.368598-2.560312-18.72855 16.942881-30.320563 16.942881-30.320563l61.721737-36.889165c0 0 12.345166-7.460925 14.934131 8.997931C810.43088 387.955846 794.077424 398.306588 794.077424 398.306588zM735.27211 313.425386 390.076136 180.054819l104.717993-41.614793 340.420203 122.796744L735.27211 313.425386z" fill="#00bcd4" /></svg>