<?xml version="1.0" standalone="no"?><!DOCTYPE svg PUBLIC "-//W3C//DTD SVG 1.1//EN" "http://www.w3.org/Graphics/SVG/1.1/DTD/svg11.dtd"><svg class="icon" width="200px" height="200.00px" viewBox="0 0 1024 1024" version="1.1" xmlns="http://www.w3.org/2000/svg"><path d="M198.4 780.8 198.4 230.4l70.4 0 0 550.4L198.4 780.8z" fill="#00bcd4" /><path d="M403.2 780.8 403.2 230.4l192 0c44.8 0 76.8 0 96 6.4 32 6.4 57.6 19.2 83.2 38.4 32 25.6 51.2 57.6 64 96s19.2 83.2 19.2 128c0 44.8-6.4 76.8-12.8 108.8s-19.2 57.6-38.4 83.2-32 38.4-51.2 51.2-38.4 19.2-64 25.6-57.6 6.4-89.6 6.4L403.2 774.4zM473.6 716.8l115.2 0c38.4 0 64-6.4 83.2-12.8s38.4-19.2 51.2-25.6c19.2-19.2 32-38.4 38.4-70.4s12.8-64 12.8-108.8c0-57.6-6.4-102.4-25.6-134.4s-44.8-51.2-70.4-64c-19.2-6.4-51.2-12.8-96-12.8L473.6 288 473.6 716.8z" fill="#00bcd4" /></svg>