<?xml version="1.0" standalone="no"?><!DOCTYPE svg PUBLIC "-//W3C//DTD SVG 1.1//EN" "http://www.w3.org/Graphics/SVG/1.1/DTD/svg11.dtd"><svg class="icon" width="200px" height="200.00px" viewBox="0 0 1024 1024" version="1.1" xmlns="http://www.w3.org/2000/svg"><path d="M514.909091 896.244364C259.735273 896.244364 52.130909 723.874909 52.130909 512S259.735273 127.767273 514.909091 127.767273c255.185455 0 462.789818 172.369455 462.789818 384.244364 0 93.684364-40.878545 183.703273-115.153455 253.777455-2.548364 9.984-0.384 41.611636 4.945455 70.167273l8.087273 43.403636-40.529455-17.512727c-22.621091-9.786182-60.311273-23.482182-74.705455-23.959273C686.882909 876.066909 602.100364 896.244364 514.909091 896.244364zM514.909091 174.778182c-229.259636 0-415.767273 151.272727-415.767273 337.221818 0 185.937455 186.507636 337.210182 415.767273 337.210182 80.570182 0 158.731636-18.746182 226.013091-54.225455 5.259636-2.769455 11.368727-4.119273 18.664727-4.119273 14.72 0 36.631273 6.248727 55.808 12.904727-4.852364-53.818182 8.110545-65.885091 12.951273-70.388364 65.989818-61.381818 102.318545-140.008727 102.318545-221.393455C930.664727 326.062545 744.157091 174.778182 514.909091 174.778182z" fill="#00bcd4" /><path d="M324.421818 512m-33.512727 0a2.88 2.88 0 1 0 67.025455 0 2.88 2.88 0 1 0-67.025455 0Z" fill="#00bcd4" /><path d="M500.363636 512m-33.512727 0a2.88 2.88 0 1 0 67.025455 0 2.88 2.88 0 1 0-67.025455 0Z" fill="#00bcd4" /><path d="M676.305455 512m-33.512727 0a2.88 2.88 0 1 0 67.025455 0 2.88 2.88 0 1 0-67.025455 0Z" fill="#00bcd4" /></svg>