<?xml version="1.0" standalone="no"?><!DOCTYPE svg PUBLIC "-//W3C//DTD SVG 1.1//EN" "http://www.w3.org/Graphics/SVG/1.1/DTD/svg11.dtd"><svg class="icon" width="200px" height="200.00px" viewBox="0 0 1024 1024" version="1.1" xmlns="http://www.w3.org/2000/svg"><path d="M372.8384 238.933333L194.218667 442.5728 512 786.773333l317.952-344.439466L653.141333 238.933333h-280.302933z m-15.4624-68.266666h311.330133a34.133333 34.133333 0 0 1 25.770667 11.741866l207.0528 238.250667a34.133333 34.133333 0 0 1-0.682667 45.533867L537.088 860.296533a34.133333 34.133333 0 0 1-50.176 0L123.221333 466.295467a34.133333 34.133333 0 0 1-0.580266-45.636267L331.707733 182.272A34.133333 34.133333 0 0 1 357.376 170.666667zM512 589.687467l128.238933-142.472534 50.722134 45.6704L512 691.712 333.038933 492.885333l50.722134-45.6704L512 589.687467z" fill="#00bcd4" /></svg>