<?xml version="1.0" standalone="no"?><!DOCTYPE svg PUBLIC "-//W3C//DTD SVG 1.1//EN" "http://www.w3.org/Graphics/SVG/1.1/DTD/svg11.dtd"><svg class="icon" width="200px" height="200.00px" viewBox="0 0 1024 1024" version="1.1" xmlns="http://www.w3.org/2000/svg"><path d="M752.883353 1023.993c-66.069548 0-151.350965-44.009699-211.276555-80.939447-80.227452-49.463662-166.688861-117.849194-243.421336-192.622683l-0.288998-0.266998-24.352834-24.375833c-74.751489-76.709476-143.159021-163.170885-192.622683-243.420336C44.013199 422.464112 0.0035 337.160695 0.0035 271.113147c0-70.699517 50.553654-145.741004 72.302506-174.723806C89.24589 73.772496 148.505485 0 198.858141 0c20.679859 0 42.941706 13.534907 72.191506 43.8757 25.889823 26.846816 50.709653 60.193589 67.005542 83.45543 21.836851 31.231787 42.072712 63.910563 56.919611 92.04837 24.064835 45.567689 26.824817 65.089555 26.824817 75.842482 0 21.659852-11.308923 40.447724-33.613771 55.829618-14.6919 10.128931-32.322779 17.763879-49.396662 25.131828-11.508921 4.964966-29.851796 12.911912-36.863748 18.499874 2.426983 10.349929 13.11191 35.349758 41.983713 77.733469 26.890816 39.49073 61.684578 82.298437 93.116364 114.554217 32.278779 31.431785 75.063487 66.202547 114.554216 93.116363 42.36171 28.849803 67.36054 39.53473 77.734469 41.983713 5.586962-6.989952 13.511908-25.377827 18.498874-36.863748 7.389949-17.073883 15.002897-34.704763 25.131828-49.396662 15.381895-22.304848 34.169766-33.61377 55.829618-33.613771 10.729927 0 30.274793 2.782981 75.842482 26.823817 28.137808 14.847899 60.816584 35.06076 92.04837 56.920611 23.239841 16.272889 56.609613 41.115719 83.45543 66.982542 30.340793 29.2728 43.8757 51.556648 43.8757 72.214506 0 50.353656-73.772496 109.589251-96.411341 126.552135C898.624357 973.439346 823.58287 1023.993 752.883353 1023.993z m-412.357181-316.725835c73.593497 71.70251 156.268932 137.149062 232.802409 184.29674 74.194493 45.723687 139.641045 71.946508 179.554772 71.946509 35.549757 0 86.23741-21.703852 135.568074-58.055604 21.636852-15.938891 41.315718-33.70277 55.450621-49.997658 13.245909-15.292895 18.097876-25.265827 19.322867-29.2948-5.097965-10.996925-35.528757-45.38969-106.495272-94.341355-27.82581-19.188869-56.609613-36.841748-81.051445-49.68566-30.67479-16.13989-43.452703-18.921871-46.369684-19.366868-1.134992 0.778995-4.473969 3.583976-9.549934 12.087918-5.675961 9.526935-11.151924 22.149849-16.427888 34.369765-6.499956 15.025897-13.22291 30.586791-21.481853 43.141705-13.422908 20.41286-29.895796 30.76379-48.972665 30.76379h-1.068993c-9.282937-0.199999-37.553743-0.800995-114.242219-53.046638-42.339711-28.849803-88.329396-66.269547-123.012159-100.062316l-0.534996-0.533996c-33.813769-34.682763-71.211513-80.673449-100.061316-122.990159-52.245643-76.710476-52.847639-104.959283-53.047638-114.264219-0.422997-19.411867 9.816933-36.173753 30.452792-49.81966 12.599914-8.347943 28.293807-15.137897 43.452703-21.681852 12.199917-5.275964 24.84283-10.751927 34.370765-16.428887 8.503942-5.074965 11.308923-8.414942 12.087917-9.549935-0.467997-2.91598-3.249978-15.715893-19.366867-46.369683-12.844912-24.419833-30.497792-53.202636-49.686661-81.050446-48.995665-71.033514-83.38843-101.442307-94.385354-106.562271-4.028972 1.246991-14.001904 6.076958-29.3168 19.322867-16.294889 14.112904-34.036767 33.813769-49.975658 55.450621-36.351752 49.329663-58.077603 100.018316-58.077603 135.569074 0 39.912727 26.222821 105.35928 71.946508 179.553772 47.169678 76.532477 112.61623 159.208912 184.29574 232.802409l23.819837 23.796837z" fill="#00bcd4" /></svg>