<?xml version="1.0" standalone="no"?><!DOCTYPE svg PUBLIC "-//W3C//DTD SVG 1.1//EN" "http://www.w3.org/Graphics/SVG/1.1/DTD/svg11.dtd"><svg class="icon" width="200px" height="200.00px" viewBox="0 0 1024 1024" version="1.1" xmlns="http://www.w3.org/2000/svg"><path d="M567.296 626.688c-8.192 8.192-8.192 20.48 0 28.672 8.192 8.192 20.48 8.192 28.672 0l141.312-141.312c4.096-4.096 6.144-10.24 6.144-16.384 0-6.144-2.048-10.24-6.144-16.384l-141.312-141.312c-8.192-8.192-20.48-8.192-28.672 0-8.192 8.192-8.192 20.48 0 28.672l106.496 106.496L192.512 475.136c-12.288 0-20.48 8.192-20.48 20.48 0 12.288 8.192 20.48 20.48 20.48L675.84 516.096 567.296 626.688zM745.472 192.512l-409.6 0c-45.056 0-81.92 36.864-81.92 81.92l0 81.92 40.96 0 0-81.92c0-22.528 18.432-40.96 40.96-40.96l409.6 0c22.528 0 40.96 18.432 40.96 40.96l0 450.56c0 22.528-18.432 40.96-40.96 40.96l-409.6 0c-22.528 0-40.96-18.432-40.96-40.96l0-81.92-40.96 0 0 81.92c0 45.056 36.864 81.92 81.92 81.92l409.6 0c45.056 0 81.92-36.864 81.92-81.92l0-450.56C827.392 229.376 790.528 192.512 745.472 192.512z" fill="#00bcd4" /></svg>